<?xml version="1.0" encoding="UTF-8" standalone="no"?>
<svg
   xmlns:dc="http://purl.org/dc/elements/1.1/"
   xmlns:cc="http://creativecommons.org/ns#"
   xmlns:rdf="http://www.w3.org/1999/02/22-rdf-syntax-ns#"
   xmlns:svg="http://www.w3.org/2000/svg"
   xmlns="http://www.w3.org/2000/svg"
   xmlns:sodipodi="http://sodipodi.sourceforge.net/DTD/sodipodi-0.dtd"
   xmlns:inkscape="http://www.inkscape.org/namespaces/inkscape"
   width="3000pt"
   height="3000pt"
   viewBox="0 0 3000 3000"
   version="1.1"
   id="svg2"
   inkscape:version="0.48.3.1 r9886"
   sodipodi:docname="alientux2.new.new.new.svg">
  <metadata
     id="metadata37">
    <rdf:RDF>
      <cc:Work
         rdf:about="">
        <dc:format>image/svg+xml</dc:format>
        <dc:type
           rdf:resource="http://purl.org/dc/dcmitype/StillImage" />
      </cc:Work>
    </rdf:RDF>
  </metadata>
  <defs
     id="defs35" />
  <sodipodi:namedview
     pagecolor="#ffffff"
     bordercolor="#666666"
     borderopacity="1"
     objecttolerance="10"
     gridtolerance="10"
     guidetolerance="10"
     inkscape:pageopacity="0"
     inkscape:pageshadow="2"
     inkscape:window-width="1600"
     inkscape:window-height="850"
     id="namedview33"
     showgrid="false"
     inkscape:zoom="0.1824"
     inkscape:cx="1875"
     inkscape:cy="1383.0576"
     inkscape:window-x="0"
     inkscape:window-y="0"
     inkscape:window-maximized="1"
     inkscape:current-layer="svg2" />
  <rect
     id="rect5"
     style="fill:#ccffa8;fill-opacity:1;stroke:none"
     height="3000"
     width="3000"
     y="0"
     x="0" />
  <g
     id="g3028"
     transform="translate(0,-4.4063)">
    <path
       style="fill:#ffffff;fill-opacity:1;fill-rule:nonzero;stroke:none"
       d="m 1520.8828,2457.6328 c -502.6875,0 -910.31249,244.2656 -915.91405,546.7735 l 1832.15625,0 c -5.5781,-302.5079 -413.5781,-546.7735 -916.2422,-546.7735 z m 0,0"
       id="path7"
       inkscape:connector-curvature="0" />
    <path
       style="fill:#000000;fill-opacity:1;fill-rule:nonzero;stroke:none"
       d="m 1813.4766,897.9375 c 14.1328,1.21875 28.1953,3.96094 42.8437,7.71094 148.5938,37.99218 275.5547,201.91406 310.9219,401.36716 10.3828,58.6407 11.2734,147.8907 1.8281,200.6719 -23.9765,133.9453 -93.3281,232.1016 -190.0547,269.5313 -39.6093,15.3281 -98.0625,19.4765 -140.2734,9.8906 -100.6875,-22.875 -200.6484,-111.7969 -261.4688,-232.9219 -29.5781,-58.875 -58.8046,-155.1094 -58.5937,-192.6094 -4.4063,-27.0468 -4.8984,-30.0703 -7.3359,-69.2109 -3.7266,-13.8984 1.8984,-87.75 13.5468,-138.0703 25.4532,-109.6641 85.1485,-193.42971 165.1641,-232.1719 40.5469,-19.64063 81.0469,-27.77344 123.4219,-24.1875 z m 0,0"
       id="path9"
       inkscape:connector-curvature="0" />
    <path
       style="fill:#73d114;fill-opacity:1;fill-rule:nonzero;stroke:none"
       d="m 1435.5469,433.59375 c -191.9063,3.11719 -378.7969,60.58594 -526.96878,163.33594 -211.89843,146.92968 -352.125,372.72656 -411.25781,663.21091 -2.71875,13.3594 -6.1875,31.7344 -8.0625,40.6407 -1.875,8.9062 -5.71875,31.5937 -8.0625,50.5312 -2.34375,18.9609 -6.35156,50.2734 -9.14062,69.2109 -6.5625,44.4844 -6.60938,206.836 0,247.1954 20.20312,123.4921 42.11718,213.6562 88.61718,364.7578 14.13282,45.914 17.41407,56.9297 24.89063,84.9609 2.08594,7.8047 9.65625,35.1563 16.5,60.7969 44.01562,164.9531 47.85937,278.6484 13.89844,386.3437 -24.86719,78.8438 -64.17188,139.2657 -141.72657,216.4219 -55.57031,55.4531 -118.33593,139.125 -159.28125,223.4063 l 374.25,0 c 9.77344,-22.5938 17.60157,-46.2188 26.36719,-63.7266 56.17969,-112.0781 113.13281,-190.875 193.73438,-268.0781 106.07811,-101.625 225.53911,-162.586 368.03911,-188.2266 39.1406,-7.0547 161.625,-8.2969 200.3203,-1.8281 210.9609,35.2265 391.2656,147.75 535.4062,333.9844 42.5156,54.9375 80.7891,119.5781 115.336,187.875 l 787.7343,0 c -26.5547,-57.5625 -71.7187,-129.6563 -126.2343,-207.2813 -29.9297,-42.6328 -69.6563,-106.9453 -91.2891,-132.5625 -68.7188,-81.4453 -126.5859,-120.7969 -168.2109,-175.8984 -86.5079,-79.9453 -76.2188,-96.5391 -74.2266,-208.9922 36,-179.1563 46.2891,-513.4688 36,-782.7188 3.7969,-78.6093 -0.4922,-119.4843 -4.5,-161.0156 -14.2266,-146.7656 -42.0703,-234.8672 -99.6094,-349.73438 -45.5859,-90.96093 -102.9609,-169.40625 -178.3594,-244.61718 -84.3281,-84.14063 -166.0781,-142.57032 -275.7421,-196.66407 -133.6172,-65.90625 -260.7891,-99.375 -416.0157,-109.5 -27.539,-1.78125 -54.9843,-2.27343 -82.4062,-1.82812 z m 0,0"
       id="path11"
       inkscape:connector-curvature="0" />
    <path
       style="fill:#66bd0f;fill-opacity:1;fill-rule:nonzero;stroke:none"
       d="m 1521.2344,567.63281 c 0,0 -51.4219,1268.55469 -19.0313,1801.75779 178.7578,29.836 260.5782,70.336 438.7032,215.6953 93.2343,76.0547 266.2031,272.6485 332.9062,419.3204 l 502.4297,0 C 2729.3906,2932.125 2636.6953,2792.3906 2614.3828,2766 c -28.4765,-33.7266 -67.0078,-78.9844 -85.3359,-100.7109 -58.2188,-69 -145.2656,-167.1797 -180.5391,-213.8672 -37.3359,-36.8906 -33.5859,-62.8594 -32.2265,-112.4297 3.3515,-132.6563 16.3125,-651.6328 26.7421,-868.2891 3.211,-66.6093 3.3985,-93.7031 0,-128.9062 -12.0468,-124.3594 -35.8359,-210.2813 -84.6093,-307.6172 -38.6016,-77.08595 -86.9766,-143.53126 -150.8672,-207.28126 -71.461,-71.29688 -140.7188,-120.79688 -233.6485,-166.61719 -113.2031,-55.82813 -352.664,-92.64844 -352.664,-92.64844 z m 0,0"
       id="path13"
       inkscape:connector-curvature="0" />
    <path
       style="fill:#eecc00;fill-opacity:1;fill-rule:nonzero;stroke:none"
       d="m 1427.0859,1764.8672 -13.9218,14.8125 c -27.7032,29.3437 -87.3516,49.3594 -179.1094,59.9062 -100.7578,11.6016 -228.8906,5.3204 -290.29689,-14.1796 -30.35156,-9.6329 -38.57812,-7.9922 -45.84375,9.4921 -22.89844,55.2188 24.98438,159.7266 137.55474,300.3047 71.3906,89.1563 177.5156,196.336 243.9375,246.3516 25.8515,19.4766 57.375,34.8516 86.7656,42.3047 23.9062,6.0703 165.5156,4.875 198.9609,-1.6406 11.1563,-2.1797 31.9219,-6.1172 46.1016,-8.8829 77.0859,-14.8828 142.0547,-52.2187 255.8672,-146.789 102.7968,-85.4297 228.8672,-226.0781 262.5468,-292.9453 24.6329,-48.8907 34.8047,-122.5782 20.0157,-145.1485 -8.4844,-12.9375 -12.0469,-13.1484 -44.5782,-2.789 -31.5468,10.0312 -139.0546,20.25 -211.8984,20.25 -30.1641,0 -78.8437,-2.8125 -108.3047,-6.3282 -85.7578,-10.1953 -135.0937,-27.7734 -164.0156,-58.5 l -15.1875,-16.2187 z m 36.8672,32.4141 c 22.336,0 34.8516,29.0859 26.2032,61.1718 -14.8125,55.0313 -50.6954,81.6563 -72.5625,53.836 -23.9766,-30.4688 10.0781,-115.0078 46.3593,-115.0078 z m 84.8438,0 c 24.914,0 54.8437,47.3906 54.8437,86.7656 0,33.9375 -25.7812,49.5703 -50.1562,30.3984 -20.086,-15.7969 -37.7578,-62.5547 -33.0469,-87.6562 3.1875,-17.0625 15.1875,-29.5078 28.3594,-29.5078 z m 0,0"
       id="path15"
       inkscape:connector-curvature="0" />
    <path
       style="fill:#73d114;fill-opacity:1;fill-rule:nonzero;stroke:#73d114;stroke-width:25.09274673;stroke-linecap:round;stroke-linejoin:round;stroke-miterlimit:4;stroke-opacity:1"
       d="m 568.35938,370.125 94.21875,-68.88281 353.90617,484.03124 -94.19525,68.88284 z M 678.07031,117.91406 c 59.67187,81.58594 43.3125,195.14063 -36.46875,253.5 C 561.79688,429.77344 448.61719,410.90625 388.96875,329.32031 329.29688,247.71094 345.63281,134.15625 425.4375,75.796872 505.24219,17.460938 618.42188,36.304689 678.07031,117.91406 z m 0,0"
       id="path17"
       inkscape:connector-curvature="0" />
    <path
       style="fill:#73d114;fill-opacity:1;fill-rule:nonzero;stroke:#73d114;stroke-width:25.09274673;stroke-linecap:round;stroke-linejoin:round;stroke-miterlimit:4;stroke-opacity:1"
       d="m 2392.6875,370.125 -94.2188,-68.88281 -353.9296,484.03124 94.2187,68.88284 z M 2282.9531,117.91406 c -59.6484,81.58594 -43.3125,195.14063 36.4922,253.5 79.8047,58.35938 192.9844,39.49219 252.6328,-42.09375 59.6719,-81.60937 43.3125,-195.16406 -36.4687,-253.523438 -79.8047,-58.335934 -192.9844,-39.492183 -252.6563,42.117188 z m 0,0"
       id="path19"
       inkscape:connector-curvature="0" />
    <path
       style="fill:#4c9905;fill-opacity:0.35686298;fill-rule:nonzero;stroke:none"
       d="m 562.14844,66.257812 c -30.30469,0.820313 -59.92969,10.3125 -86.13282,29.484376 C 406.28906,146.71875 391.40625,245.67187 444,317.60156 c 41.57812,56.85938 112.38281,78.28125 174.53906,59.78906 8.95313,-2.67187 18.70313,0.51563 24.375,7.92188 L 964.24219,824.53125 1022.0391,782.01562 701.27344,343.10156 c 0,-0.0937 0,-0.1875 0,-0.28125 -5.41407,-7.54687 -5.64844,-17.71875 -0.5625,-25.5 C 737.13281,263.71875 738.32812,190.00781 696.75,133.125 663.86719,88.171875 612.72656,64.921875 562.14844,66.257812 z m 0,0"
       id="path21"
       inkscape:connector-curvature="0" />
    <path
       style="fill:#4c9905;fill-opacity:0.35686298;fill-rule:nonzero;stroke:none"
       d="m 2451.6094,99.28125 c 30.3047,0.82031 59.9297,10.3125 86.1328,29.46094 69.7031,50.97656 84.6094,149.95312 32.0156,221.88281 -41.5781,56.85937 -112.3828,78.28125 -174.539,59.78906 -8.9766,-2.67187 -18.7032,0.49219 -24.375,7.92188 0,0 -315.7735,441.75 -328.2891,446.17968 -11.625,4.10157 -58.8047,-38.53125 -58.8047,-38.53125 L 2312.4609,376.125 c 0.023,-0.0937 0.023,-0.1875 0,-0.28125 5.4375,-7.54688 5.6485,-17.71875 0.586,-25.5 -36.4219,-53.60156 -37.6172,-127.3125 3.9609,-184.19531 32.8828,-44.95313 84.0235,-68.226565 134.6016,-66.86719 z m 0,0"
       id="path23"
       inkscape:connector-curvature="0" />
    <path
       style="fill:#2e3335;fill-opacity:1;fill-rule:nonzero;stroke:none"
       d="m 2270.3672,994.6875 c 120.1406,107.8828 75.7734,353.2031 -99.0938,547.9219 -174.8671,194.7187 -414,265.125 -534.1406,157.2422 -120.1406,-107.8828 -75.7734,-353.2032 99.0938,-547.9219 174.8437,-194.7422 414,-265.12501 534.1406,-157.2422 z m 0,0"
       id="path25"
       inkscape:connector-curvature="0" />
    <path
       style="fill:#545751;fill-opacity:1;fill-rule:nonzero;stroke:none"
       d="m 2242.8516,1044.7734 c 70.7812,63.5391 44.6484,208.0547 -58.3594,322.7813 -103.0078,114.7031 -243.8906,156.1875 -314.6719,92.625 -70.7812,-63.5625 -44.6484,-208.0781 58.3828,-322.7813 103.0078,-114.7265 243.8907,-156.18746 314.6485,-92.625 z m 0,0"
       id="path27"
       inkscape:connector-curvature="0" />
    <path
       style="fill:#2e3335;fill-opacity:1;fill-rule:nonzero;stroke:none"
       d="m 718.07812,994.6875 c -120.14062,107.8828 -75.79687,353.2031 99.07032,547.9219 174.86718,194.7187 414.02346,265.125 534.16406,157.2422 120.1406,-107.8828 75.7734,-353.2032 -99.0937,-547.9219 C 1077.3516,957.1875 838.21875,886.80469 718.07812,994.6875 z m 0,0"
       id="path29"
       inkscape:connector-curvature="0" />
    <path
       style="fill:#545751;fill-opacity:1;fill-rule:nonzero;stroke:none"
       d="m 827.17969,1044.7734 c -70.78125,63.5391 -44.64844,208.0547 58.35937,322.7813 103.03125,114.7031 243.89064,156.1875 314.67184,92.625 70.7813,-63.5625 44.6485,-208.0781 -58.3593,-322.7813 -103.0313,-114.7265 -243.9141,-156.18746 -314.67191,-92.625 z m 0,0"
       id="path31"
       inkscape:connector-curvature="0" />
  </g>
</svg>
